<svg width="180" height="180" viewBox="0 0 180 180" fill="none" xmlns="http://www.w3.org/2000/svg">
  <rect width="180" height="180" rx="42" fill="#E62321" />
  
  <g transform="translate(32, 58)">
    <path fill="#FFFFFF" fill-rule="evenodd" clip-rule="evenodd" d="
      M 12, 0
      C 4, 0, 0, 5, 0, 14
      V 48
      C 0, 58, 6, 62, 14, 62
      H 18
      A 12,12 0 0 1 42, 62
      H 74
      A 12,12 0 0 1 98, 62
      H 102
      C 112, 62, 116, 55, 116, 45
      L 112, 25
      C 110, 10, 105, 0, 90, 0
      H 12
      Z

      M 11, 8
      H 33
      A 2,2 0 0 1 35, 10
      V 28
      A 2,2 0 0 1 33, 30
      H 11
      A 2,2 0 0 1 9, 28
      V 10
      A 2,2 0 0 1 11, 8
      Z

      M 43, 8
      H 65
      A 2,2 0 0 1 67, 10
      V 28
      A 2,2 0 0 1 65, 30
      H 43
      A 2,2 0 0 1 41, 28
      V 10
      A 2,2 0 0 1 43, 8
      Z

      M 75, 8
      H 90
      C 95, 8, 98, 12, 99, 18
      L 101, 28
      A 2,2 0 0 1 99, 30
      H 75
      A 2,2 0 0 1 73, 28
      V 10
      A 2,2 0 0 1 75, 8
      Z
      
      M 9, 38 H 108 V 42 H 9 V 38 Z
    " />
    
    <path fill="#FFFFFF" fill-rule="evenodd" clip-rule="evenodd" d="
      M 30, 62
      A 10,10 0 1 0 30, 82
      A 10,10 0 1 0 30, 62
      Z
      M 30, 68
      A 4,4 0 1 1 30, 76
      A 4,4 0 1 1 30, 68
      Z
    " />
    
    <path fill="#FFFFFF" fill-rule="evenodd" clip-rule="evenodd" d="
      M 86, 62
      A 10,10 0 1 0 86, 82
      A 10,10 0 1 0 86, 62
      Z
      M 86, 68
      A 4,4 0 1 1 86, 76
      A 4,4 0 1 1 86, 68
      Z
    " />
  </g>
</svg>